<svg width="70" height="78" viewBox="0 0 70 78" fill="none" xmlns="http://www.w3.org/2000/svg">
<path d="M56.554 41.0828C56.5194 34.7129 59.397 29.9052 65.2217 26.3645C61.9626 21.6956 57.0394 19.1268 50.5387 18.6235C44.3847 18.1375 37.6586 22.2163 35.197 22.2163C32.5967 22.2163 26.6334 18.7971 21.9529 18.7971C12.2798 18.9533 2 26.5207 2 41.9159C2 46.4633 2.83209 51.1611 4.49628 56.0093C6.71519 62.3792 14.7241 78 23.0797 77.7396C27.4482 77.6355 30.5338 74.6328 36.2198 74.6328C41.7324 74.6328 44.5927 77.7396 49.4639 77.7396C57.8889 77.6181 65.135 63.4206 67.2499 57.0334C55.9473 51.7049 56.554 41.4125 56.554 41.0828ZM46.7423 12.5834C51.4748 6.95995 51.0414 1.83979 50.9028 0C46.725 0.242991 41.8884 2.84646 39.1321 6.05741C36.0984 9.49399 34.3129 13.7463 34.6943 18.5367C39.2188 18.8838 43.3446 16.5581 46.7423 12.5834Z" fill="#0B1124"/>
</svg>
