<svg width="95" height="95" viewBox="0 0 95 95" fill="none" xmlns="http://www.w3.org/2000/svg">
<path fill-rule="evenodd" clip-rule="evenodd" d="M1 34.5357H12.2124L13.4415 34.587L14.619 34.6895L15.7456 34.9453L16.821 35.2016L17.7934 35.6111L18.715 36.0207L19.5854 36.5328L20.4045 37.0961L21.1216 37.7107L21.8382 38.376L22.4528 39.0931L23.0157 39.861L23.4765 40.6801L23.9373 41.4997L24.2956 42.3701L24.6031 43.2405L40.5247 33L46.3098 36.8911L33.92 44.8777L35.9165 46.2089L48.4088 38.2735L53.7839 41.857L41.4458 49.9974L43.5449 51.2774L56.0875 43.2907V34.5357H65.3033V51.994H73.495V60.1852H56.0875V51.789L40.5755 61.7726L24.7554 51.0724L24.4479 51.994L24.1408 52.8644L23.68 53.7347L23.2192 54.6056L22.6559 55.3735L22.0413 56.1418L21.3759 56.8584L20.6081 57.4725L19.8402 58.0871L18.9186 58.5992L17.997 59.06L16.9728 59.4696L15.8974 59.7766L14.7712 59.9811L13.5938 60.1349L12.3139 60.1862H1V34.5357ZM9.80626 42.5736H12.2124L13.2878 42.6761L14.1581 42.9832L14.926 43.444L15.5914 44.0586L16.0527 44.7752L16.411 45.5436L16.6155 46.4139L16.6668 47.2843L16.6155 48.1547L16.411 49.0255L16.0527 49.7934L15.5406 50.5105L14.926 51.1246L14.1581 51.5859L13.2365 51.893L12.2124 51.9955H9.80626V42.5736ZM75.799 34.5357H85.0661V51.994H93.207V60.1852H75.7995V34.5357H75.799Z" fill="#0382C7"/>
</svg>
