<svg width="57" height="57" viewBox="0 0 57 57" fill="none" xmlns="http://www.w3.org/2000/svg">
<g clip-path="url(#clip0_295_1686)">
<path fill-rule="evenodd" clip-rule="evenodd" d="M54.8343 57H2.1638C0.968712 57 0 56.0312 0 54.8361V2.16188C0 0.966713 0.968712 -0.00151825 2.1638 -0.00151825H54.8343C56.0294 -0.00151825 56.9981 0.966713 56.9981 2.16188V54.8361C56.9981 56.0312 56.0294 57 54.8343 57Z" fill="#FF6700"/>
<path d="M44.8316 17.859H40.3474C40.1554 17.859 40 18.0117 40 18.1999V38.6607C40 38.8473 40.1554 39 40.3474 39H44.8316C45.022 39 45.1796 38.8473 45.1796 38.6607V18.1999C45.1796 18.0117 45.022 17.859 44.8316 17.859Z" fill="#FEFEFF"/>
<path d="M29.4272 17.859H12.3464C12.1544 17.859 12 18.0117 12 18.1999V38.6607C12 38.8473 12.1544 39 12.3464 39H16.8316C17.0225 39 17.1807 38.8473 17.1807 38.6607V22.602C17.1807 22.4166 17.3351 22.2627 17.5271 22.2627H27.1887C29.9056 22.2627 30.6768 24.3438 30.6768 25.6862V38.6607C30.6768 38.8473 30.8328 39 31.0248 39H35.5074C35.6983 39 35.8548 38.8473 35.8548 38.6607V24.1458C35.8548 22.9484 35.7108 21.2269 34.1661 19.7115C32.5499 18.1296 31.0756 17.859 29.4272 17.859Z" fill="#FEFEFF"/>
<path d="M26.0585 26.0075H21.3496C21.1576 26.0075 21 26.1603 21 26.3474V38.6612C21 38.8473 21.1576 39 21.3496 39H26.0585C26.2489 39 26.4049 38.8473 26.4049 38.6612V26.3474C26.4049 26.1603 26.2489 26.0075 26.0585 26.0075Z" fill="#FEFEFF"/>
</g>
<defs>
<clipPath id="clip0_295_1686">
<rect width="57" height="57" fill="white"/>
</clipPath>
</defs>
</svg>
