<svg width="150" height="39" viewBox="0 0 150 39" fill="none" xmlns="http://www.w3.org/2000/svg">
<path d="M38.1181 20.2757V3.23685H43.481V4.36299C43.481 4.98251 43.4906 5.48931 43.5021 5.48931C43.5138 5.48931 43.8523 5.28513 44.2543 5.03563C48.9974 2.09211 55.8922 1.20566 62.0762 2.74449C67.6475 4.13093 71.6864 7.42189 73.1221 11.7454C73.9611 14.2719 73.9149 17.0815 72.994 19.5248C71.8485 22.5643 69.4937 25.008 66.0971 26.6821C63.1248 28.1471 59.731 28.8806 55.9262 28.8806C52.7721 28.8806 49.8303 28.3594 47.2408 27.342C46.2133 26.9383 44.8962 26.2756 44.0972 25.7602L43.481 25.3627V37.3148H38.1181V20.2757ZM58.5203 24.3508C61.5369 23.9268 63.8773 22.9785 65.6321 21.4692C66.9604 20.3268 67.8854 18.7401 68.2359 17.0031C68.3793 16.2926 68.3796 14.615 68.2367 13.9067C67.8241 11.8624 66.6418 10.0767 64.8721 8.8246C64.1588 8.31995 62.7098 7.60067 61.7848 7.29241C59.173 6.4219 56.0061 6.1641 53.1056 6.58591C48.0697 7.31814 44.6661 9.79304 43.7529 13.386C43.35 14.9713 43.422 16.6827 43.9545 18.1784C45.1637 21.5759 48.73 23.8369 53.7695 24.4011C54.7828 24.5146 57.5647 24.4851 58.5205 24.3508H58.5203ZM76.2996 20.2757V3.23685H81.6623V4.36299C81.6623 4.98251 81.674 5.48931 81.6881 5.48931C81.7023 5.48931 81.9973 5.30621 82.3438 5.08261C83.1456 4.56469 84.728 3.79013 85.7427 3.41911C90.1229 1.81721 95.471 1.55875 100.151 2.72307C107.781 4.62096 112.273 9.8206 111.849 16.2614C111.525 21.1779 108.224 25.2163 102.793 27.3387C101.022 28.0309 99.2063 28.4675 96.9343 28.7475C95.7351 28.8952 92.5032 28.8952 91.2514 28.7472C87.7082 28.3283 84.5976 27.2859 82.1723 25.7044L81.6623 25.3719V37.3148H76.2996V20.2757ZM96.8316 24.3257C101.009 23.7076 103.953 22.0399 105.5 19.4154C106.399 17.8909 106.735 15.8629 106.402 13.9799C105.709 10.0663 102.238 7.35815 96.9235 6.58508C93.4157 6.07496 89.4552 6.58309 86.763 7.88868C84.0146 9.2215 82.3606 11.2114 81.796 13.8644C81.6479 14.5609 81.6482 16.3514 81.7968 17.034C82.1967 18.8716 83.1006 20.392 84.4723 21.5346C86.3611 23.108 88.8195 24.0449 92.0093 24.4071C93.0644 24.5268 95.7823 24.481 96.8316 24.3257ZM15.9669 28.8454C13.1222 28.5964 10.6941 28.0412 8.62946 27.1673C3.93317 25.1798 0.967002 21.8253 0.162006 17.5913C0.00821024 16.7827 -0.0504264 14.9608 0.0492558 14.0903C0.630595 9.01417 4.40444 4.99347 10.371 3.09359C13.546 2.08264 17.4543 1.7523 20.9624 2.19851C27.3895 3.01623 32.2511 5.96922 34.388 10.3535C36.128 13.9231 35.9072 18.2592 33.8157 21.5929C32.8735 23.0945 31.3225 24.6443 29.724 25.6808C27.2372 27.2933 24.267 28.2965 20.6595 28.7422C19.9369 28.8315 16.6372 28.904 15.9669 28.8454ZM19.7712 24.4066C22.5687 24.1124 24.922 23.3209 26.6927 22.0793C28.1402 21.064 29.2858 19.5677 29.7998 18.0207C30.1007 17.1153 30.1603 16.6902 30.1603 15.4528C30.1603 14.2191 30.1015 13.7975 29.8029 12.8914C28.8217 9.91323 25.9519 7.69778 21.942 6.82329C18.4261 6.05637 14.3259 6.32297 11.2882 7.51568C9.09654 8.37623 7.36676 9.76931 6.35218 11.4904C5.2736 13.3206 5.02867 15.8132 5.7169 17.9614C6.4584 20.2762 8.41166 22.2132 11.0996 23.2997C12.5636 23.8915 14.3763 24.304 16.171 24.4534C16.8595 24.5107 19.052 24.4821 19.7712 24.4066ZM130.395 28.8474C130.283 28.8348 129.889 28.796 129.52 28.7614C126.56 28.4834 123.448 27.5571 121.166 26.2749C118.082 24.5415 115.933 22.0778 114.952 19.1493C114.289 17.1676 114.176 14.9404 114.634 12.8913C115.328 9.79288 117.231 7.16193 120.187 5.21607C124.085 2.65003 129.817 1.51027 135.35 2.20117C139.946 2.77503 143.734 4.44085 146.369 7.04806C148.376 9.03359 149.529 11.3603 149.863 14.094C149.95 14.8044 149.936 16.2412 149.836 16.995C149.113 22.4234 144.769 26.5724 138.118 28.1887C136.102 28.6788 134.836 28.8272 132.464 28.8514C131.438 28.8619 130.507 28.8601 130.395 28.8474ZM133.921 24.4335C137.462 24.1108 140.349 22.9544 142.201 21.1163C143.456 19.8718 144.184 18.5018 144.471 16.8459C144.589 16.1637 144.588 14.7412 144.468 14.0335C143.822 10.2235 140.432 7.46156 135.408 6.65364C134.202 6.45958 133.399 6.39634 132.143 6.39634C126.511 6.39634 122.141 8.50073 120.46 12.0221C119.959 13.0717 119.728 14.1549 119.728 15.4528C119.728 17.1655 120.131 18.5238 121.04 19.8773C122.709 22.362 125.875 23.9492 130.066 24.4028C130.93 24.4962 133.049 24.5132 133.922 24.4336L133.921 24.4335Z" fill="#006B33"/>
</svg>
