<svg width="159" height="156" viewBox="0 0 159 156" fill="none" xmlns="http://www.w3.org/2000/svg">
<path fill-rule="evenodd" clip-rule="evenodd" d="M85.4814 77.8172C85.4814 77.8172 84.1954 77.037 83.4002 76.7352C83.4002 76.7352 80.9388 75.6159 80.4504 75.0834C80.4504 75.0834 79.4911 74.1964 80.0529 73.1661C80.0529 73.1661 80.2879 72.4919 81.3017 72.4919C81.3017 72.4919 82.6215 72.5632 82.6215 73.6274V75.1287H87.3514L87.3431 72.9176C87.3431 72.9176 87.7069 69.2968 81.7719 69.1373C81.7719 69.1373 77.1039 68.8363 75.7651 71.3031C75.7651 71.3031 75.2397 71.8534 75.2397 73.7698V75.1546C75.2397 75.1546 75.1861 76.7522 76.0176 77.7816C76.0176 77.7816 76.4877 78.4566 77.6459 79.2012C77.6459 79.2012 79.9976 80.4434 81.409 81.1548C81.409 81.1548 82.8335 81.9528 82.6463 83.2226C82.6463 83.2226 82.53 84.5264 81.1541 84.473C81.1541 84.473 79.8961 84.418 79.8961 83.1393V81.6388H74.8561V83.8183C74.8561 83.8183 74.7151 87.9863 81.1912 87.9863C81.1912 87.9863 87.3794 88.1093 87.6681 83.709V81.9342C87.6673 81.9342 87.8867 79.2376 85.4814 77.8172ZM61.2663 69.6561L59.6825 79.3938H59.3121L57.7993 69.7435H49.8986L49.5027 87.3776H54.1806L54.2367 74.0911H54.6046L57.0841 87.3752H62.0054L64.4544 74.096H64.7803L64.8933 87.3776H69.5959L69.0894 69.6561H61.2663ZM33.4201 69.7298L30.3078 87.3574H35.3437L37.1873 73.6897H37.6014L39.4442 87.3574H44.4792L41.3678 69.7298H33.4201ZM139.088 77.5744V80.1748H140.38V82.9661C140.38 84.3306 139.192 84.3557 139.192 84.3557C137.746 84.3557 137.801 83.0591 137.801 83.0591V73.404C137.801 72.4094 139.084 72.356 139.084 72.356C140.314 72.356 140.322 73.5424 140.322 73.5424V75.0105H145.064C145.219 72.1447 144.637 71.4512 144.637 71.4512C143.46 68.8597 139.011 69.0014 139.011 69.0014C132.174 69.0014 132.932 74.1486 132.932 74.1486V83.484C133.079 88.3116 139.817 87.8212 139.931 87.8171C142.927 87.4918 143.832 86.557 143.832 86.557C144.665 85.95 144.88 85.1091 144.88 85.1091C145.118 84.6195 145.178 83.0591 145.178 83.0591V77.5744H139.088ZM123.372 80.4434H123.166L118.354 69.661H112.598V87.3793H117.283L117.002 76.5984H117.212L122.197 87.3793H127.779V69.6593H123.034L123.372 80.4434ZM101.161 82.9645C101.161 82.9645 101.228 84.4188 99.854 84.4188C99.854 84.4188 98.4089 84.4949 98.4089 83.0009L98.394 69.6715H93.255V82.8949C93.255 82.8949 92.7279 87.8997 99.9266 87.8997C99.9266 87.8997 106.182 87.9725 106.182 83.1247V69.6723H101.161V82.9645ZM23.623 77.8172C23.623 77.8172 22.3387 77.037 21.5427 76.736C21.5427 76.736 19.0829 75.6175 18.5946 75.0842C18.5946 75.0842 17.6352 74.1955 18.1978 73.1677C18.1978 73.1677 18.4321 72.4936 19.445 72.4936C19.445 72.4936 20.7656 72.564 20.7656 73.6282V75.1295H25.4971L25.4881 72.9176C25.4881 72.9176 25.8494 69.2968 19.9168 69.1381C19.9168 69.1381 19.4698 69.1098 18.814 69.1422C18.814 69.1422 15.22 69.3316 13.9348 71.2658C13.9274 71.2804 13.9167 71.2909 13.9093 71.3039C13.9093 71.3039 13.3846 71.8534 13.3846 73.7707V75.1554C13.3846 75.1554 13.3302 76.753 14.1625 77.7824C14.1625 77.7824 14.6327 78.4574 15.7908 79.202C15.7908 79.202 18.1417 80.4443 19.5531 81.1556C19.5531 81.1556 20.9793 81.952 20.7904 83.2234C20.7904 83.2234 20.6741 84.5272 19.299 84.4738C19.299 84.4738 18.0411 84.4188 18.0411 83.1401V81.6388H13.0002V83.8199C13.0002 83.8199 12.8592 87.9879 19.3353 87.9879C19.3353 87.9879 25.5219 88.1109 25.8131 83.7106V81.9374C25.8131 81.9358 26.0292 79.2376 23.623 77.8172Z" fill="#0B1124"/>
</svg>
