<svg width="16" height="10" viewBox="0 0 16 10" fill="none" xmlns="http://www.w3.org/2000/svg">
<path d="M15.2 0H0.8C0.358172 0 0 0.688793 0 1.53846V8.46154C0 9.31121 0.358172 10 0.8 10H15.2C15.6418 10 16 9.31121 16 8.46154V1.53846C16 0.688793 15.6418 0 15.2 0Z" fill="#2E3C85"/>
<path d="M2.7561 7.40456C2.73122 7.40456 2.71006 7.38782 2.69264 7.35431C2.67522 7.3208 2.6665 7.28013 2.6665 7.23226V2.55841C2.6665 2.50577 2.67522 2.46269 2.69264 2.42918C2.71006 2.39567 2.73122 2.37892 2.7561 2.37892H3.83877C4.04037 2.37892 4.20464 2.43874 4.33157 2.55841C4.4585 2.67328 4.55184 2.83362 4.61157 3.03944C4.6738 3.24526 4.7049 3.48456 4.7049 3.75738C4.7049 3.93926 4.68749 4.09962 4.65264 4.23841C4.62029 4.37244 4.57922 4.48251 4.52944 4.56867C4.48216 4.65482 4.43486 4.72182 4.38757 4.76969C4.48464 4.85585 4.5705 4.99944 4.64517 5.20046C4.71984 5.40149 4.75717 5.6408 4.75717 5.91841C4.75717 6.20559 4.72357 6.46167 4.65637 6.68662C4.58917 6.91157 4.48962 7.08867 4.3577 7.2179C4.2258 7.34233 4.06277 7.40456 3.86864 7.40456H2.7561ZM3.18544 6.64354H3.8089C3.9433 6.64354 4.04536 6.57413 4.11504 6.43533C4.18473 6.29174 4.21957 6.11944 4.21957 5.91841C4.21957 5.70782 4.18349 5.5331 4.1113 5.39431C4.04162 5.25551 3.94082 5.1861 3.8089 5.1861H3.18544V6.64354ZM3.18544 4.43944H3.77157C3.90349 4.43944 4.0018 4.37962 4.0665 4.25995C4.1337 4.13551 4.1673 3.97515 4.1673 3.77892C4.1673 3.5779 4.1337 3.41995 4.0665 3.30508C4.0018 3.19021 3.90349 3.13277 3.77157 3.13277H3.18544V4.43944ZM5.92862 7.40456C5.90374 7.40456 5.88258 7.38782 5.86516 7.35431C5.84774 7.3208 5.83902 7.28013 5.83902 7.23226V3.262H5.14836C5.12348 3.262 5.10232 3.24526 5.08489 3.21174C5.06748 3.17823 5.05876 3.13756 5.05876 3.08969V2.55841C5.05876 2.50577 5.06748 2.46269 5.08489 2.42918C5.10232 2.39567 5.12348 2.37892 5.14836 2.37892H7.05236C7.07974 2.37892 7.10214 2.39567 7.11956 2.42918C7.13698 2.46269 7.14569 2.50577 7.14569 2.55841V3.08969C7.14569 3.13756 7.13698 3.17823 7.11956 3.21174C7.10214 3.24526 7.07974 3.262 7.05236 3.262H6.36542V7.23226C6.36542 7.28013 6.35672 7.3208 6.33929 7.35431C6.32188 7.38782 6.29948 7.40456 6.27209 7.40456H5.92862ZM8.04793 7.47636C7.77166 7.47636 7.55265 7.32321 7.39086 7.01687C7.22909 6.71054 7.14198 6.275 7.12953 5.71021C7.12705 5.66233 7.1258 5.60251 7.1258 5.53072C7.1258 5.45413 7.12705 5.39431 7.12953 5.35123C7.13949 4.98746 7.1818 4.67636 7.25646 4.4179C7.33362 4.15464 7.4394 3.95362 7.5738 3.81482C7.7082 3.67123 7.86625 3.59944 8.04793 3.59944C8.24953 3.59944 8.41878 3.6808 8.55566 3.84354C8.69256 4.00149 8.79585 4.22405 8.86553 4.51123C8.93522 4.79362 8.97006 5.12149 8.97006 5.49482V5.64559C8.97006 5.69346 8.96136 5.73413 8.94393 5.76764C8.92652 5.80115 8.90412 5.8179 8.87673 5.8179H7.63726C7.63726 5.8179 7.63726 5.82508 7.63726 5.83944C7.63726 5.8538 7.63726 5.86577 7.63726 5.87533C7.63976 6.04285 7.65593 6.19841 7.6858 6.342C7.71816 6.4808 7.7642 6.59328 7.82393 6.67944C7.88616 6.76559 7.95958 6.80867 8.0442 6.80867C8.11389 6.80867 8.17238 6.78951 8.21966 6.75123C8.26696 6.70815 8.30553 6.66028 8.3354 6.60764C8.36526 6.555 8.38642 6.51192 8.39886 6.47841C8.42126 6.42098 8.43869 6.38746 8.45113 6.3779C8.46606 6.36354 8.48722 6.35636 8.5146 6.35636H8.83566C8.86056 6.35636 8.88046 6.37072 8.8954 6.39944C8.91282 6.42816 8.92029 6.46405 8.9178 6.50713C8.91532 6.58372 8.89416 6.67705 8.85433 6.78713C8.817 6.89721 8.76225 7.0049 8.69006 7.11021C8.61789 7.21551 8.52705 7.30405 8.41753 7.37585C8.31052 7.44285 8.18732 7.47636 8.04793 7.47636ZM7.63726 5.21482H8.46233V5.19328C8.46233 5.00662 8.44616 4.84387 8.4138 4.70508C8.38145 4.56149 8.33416 4.45141 8.27193 4.37482C8.20972 4.29346 8.13505 4.25277 8.04793 4.25277C7.96082 4.25277 7.88616 4.29346 7.82393 4.37482C7.76172 4.45141 7.71442 4.56149 7.68206 4.70508C7.6522 4.84387 7.63726 5.00662 7.63726 5.19328V5.21482ZM10.281 7.47636C10.1018 7.47636 9.94378 7.41174 9.80689 7.28251C9.67249 7.15328 9.56672 6.96662 9.48956 6.72251C9.41489 6.47362 9.37382 6.17449 9.36636 5.82508C9.36386 5.75328 9.36262 5.65995 9.36262 5.54508C9.36262 5.42541 9.36386 5.32731 9.36636 5.25072C9.37382 4.90131 9.41489 4.60456 9.48956 4.36046C9.56672 4.11156 9.67249 3.92251 9.80689 3.79328C9.94378 3.66405 10.1018 3.59944 10.281 3.59944C10.4403 3.59944 10.576 3.64251 10.688 3.72867C10.8 3.81003 10.8921 3.91772 10.9642 4.05174C11.0364 4.18097 11.0899 4.31739 11.1248 4.46098C11.1621 4.59977 11.182 4.72662 11.1845 4.84149C11.187 4.89413 11.1783 4.93721 11.1584 4.97072C11.1409 4.99944 11.1198 5.0138 11.0949 5.0138H10.7664C10.7415 5.0138 10.7216 5.00182 10.7066 4.9779C10.6942 4.95397 10.6817 4.91808 10.6693 4.87021C10.632 4.67874 10.5822 4.54474 10.52 4.46815C10.4602 4.3868 10.3831 4.3461 10.2885 4.3461C10.1641 4.3461 10.0645 4.42269 9.98982 4.57585C9.91765 4.72423 9.87906 4.96115 9.87409 5.28662C9.86912 5.46849 9.86912 5.63603 9.87409 5.78918C9.87906 6.11944 9.91765 6.35874 9.98982 6.50713C10.0645 6.65551 10.1641 6.72969 10.2885 6.72969C10.3856 6.72969 10.464 6.69141 10.5237 6.61482C10.5834 6.53346 10.632 6.39705 10.6693 6.20559C10.6817 6.15772 10.6942 6.12182 10.7066 6.0979C10.7216 6.07397 10.7415 6.062 10.7664 6.062H11.0949C11.1198 6.062 11.1409 6.07874 11.1584 6.11226C11.1783 6.14097 11.187 6.18167 11.1845 6.23431C11.182 6.32046 11.1696 6.41859 11.1472 6.52867C11.1272 6.63397 11.0937 6.74405 11.0464 6.85892C11.0016 6.969 10.9443 7.07192 10.8746 7.16764C10.8049 7.25859 10.7203 7.33277 10.6208 7.39021C10.5237 7.44764 10.4105 7.47636 10.281 7.47636ZM11.7419 7.40456C11.7169 7.40456 11.6957 7.38782 11.6784 7.35431C11.6609 7.3208 11.6523 7.28013 11.6523 7.23226V2.47944C11.6523 2.43156 11.6609 2.3909 11.6784 2.35739C11.6957 2.32387 11.7169 2.30713 11.7419 2.30713H12.0741C12.1015 2.30713 12.1227 2.32387 12.1376 2.35739C12.1549 2.3909 12.1637 2.43156 12.1637 2.47944V4.11636C12.2309 3.96321 12.3131 3.83874 12.4101 3.74303C12.5072 3.64731 12.6267 3.59944 12.7685 3.59944C12.9203 3.59944 13.0523 3.66644 13.1643 3.80046C13.2787 3.92969 13.3671 4.11397 13.4293 4.35328C13.4915 4.59259 13.5227 4.87977 13.5227 5.21482V7.23226C13.5227 7.28013 13.5139 7.3208 13.4965 7.35431C13.4791 7.38782 13.4579 7.40456 13.4331 7.40456H13.0971C13.0721 7.40456 13.0509 7.38782 13.0336 7.35431C13.0161 7.3208 13.0075 7.28013 13.0075 7.23226V5.2579C13.0075 4.98028 12.9713 4.76251 12.8992 4.60457C12.8295 4.44662 12.7275 4.36764 12.5931 4.36764C12.4636 4.36764 12.3591 4.44662 12.2795 4.60457C12.2023 4.76251 12.1637 4.98028 12.1637 5.2579V7.23226C12.1637 7.28013 12.1549 7.3208 12.1376 7.35431C12.1227 7.38782 12.1015 7.40456 12.0741 7.40456H11.7419Z" fill="#FEFEFF"/>
</svg>
