<svg width="81" height="36" viewBox="0 0 81 36" fill="none" xmlns="http://www.w3.org/2000/svg">
<g clip-path="url(#clip0_185_1685)">
<path d="M63.4216 36.0615C71.3867 36.0615 77.8433 29.3318 77.8433 21.0315C77.8433 12.729 71.3867 6 63.4216 6C55.4566 6 49 12.7298 49 21.0308C49 29.3318 55.4574 36.0615 63.4216 36.0615Z" fill="#FFCD00"/>
<path d="M53.8438 5.92725C55.4141 5.92725 56.6868 4.6005 56.6868 2.964C56.6868 1.32675 55.4141 0 53.8438 0C52.2734 0 51 1.3275 51 2.964C51 4.6005 52.2734 5.92725 53.8438 5.92725Z" fill="#FFF1B8"/>
<path d="M65.2783 24.3732C64.8266 24.785 64.2516 24.9957 63.5635 24.9957C62.6601 24.9957 61.961 24.6552 61.4757 23.9615C60.9904 23.279 60.7533 22.244 60.7533 20.8565V20.3982C60.7533 19.022 61.0014 17.9982 61.4866 17.3285C61.9719 16.658 62.6601 16.3167 63.5518 16.3167C64.2516 16.3167 64.8266 16.5522 65.2783 17.0225C65.73 17.4927 65.9665 18.1047 66.0008 18.8337H68.6074C68.5621 17.387 68.0878 16.223 67.1625 15.329C66.2372 14.447 65.0528 14 63.5854 14C61.8588 14 60.5052 14.6 59.5011 15.764C58.4962 16.9287 58 18.4925 58 20.4447V20.7387C58 22.7855 58.5079 24.3845 59.512 25.5492C60.5161 26.7132 61.8814 27.2892 63.597 27.2892C64.4592 27.2961 65.3105 27.0906 66.0796 26.69C66.8465 26.2902 67.4449 25.7487 67.8966 25.055C68.3277 24.3907 68.5735 23.6177 68.6074 22.82H66.0008C65.992 23.1162 65.9233 23.4072 65.7989 23.6746C65.6745 23.9419 65.4972 24.1796 65.2783 24.3725V24.3732ZM58.5867 29.642H68.4257V31.6887H58.5867V29.6412V29.642Z" fill="#FEFEFF"/>
<path d="M29.7649 27.1935H27V9H29.7649V27.1935Z" fill="#0B1124"/>
<path fill-rule="evenodd" clip-rule="evenodd" d="M0 10V27.241H6.04873C7.89932 27.241 9.33251 26.806 10.3249 25.936C11.3181 25.066 11.8151 23.8307 11.8151 22.2077C11.8151 21.2312 11.5669 20.3852 11.0817 19.6907C10.5855 18.997 9.89659 18.5147 9.00486 18.268C9.79516 17.9155 10.3928 17.4325 10.7993 16.798C11.2057 16.174 11.4086 15.457 11.4086 14.6687C11.4086 13.1162 10.9233 11.9522 9.94184 11.176C8.95962 10.3885 7.53811 10 5.66489 10H0ZM5.69919 17.2562H2.87659V12.4112H5.67511C6.65732 12.4112 7.38997 12.5987 7.85335 12.9752C8.316 13.3517 8.55316 13.975 8.55316 14.8217C8.55316 15.598 8.30505 16.198 7.79716 16.6217C7.28927 17.0447 6.58946 17.2562 5.69773 17.2562H5.69919ZM2.87659 24.8185V19.456H6.29757C8.05767 19.5025 8.93773 20.4085 8.93773 22.1957C8.93773 23.0192 8.68962 23.6657 8.18173 24.1247C7.67384 24.583 6.97476 24.8185 6.07208 24.8185H2.87732H2.87659ZM21.4402 26.041C21.5307 26.5945 21.6321 26.9942 21.7562 27.241H24.5663V27.0415C24.2613 26.347 24.1037 25.4297 24.1037 24.2777V18.5027C24.0811 17.1385 23.6411 16.0802 22.7829 15.3272C21.9255 14.575 20.7863 14.1985 19.3415 14.1985C18.3936 14.1985 17.5361 14.3635 16.7685 14.716C15.9898 15.0572 15.3922 15.5395 14.9405 16.1507C14.5005 16.762 14.275 17.4205 14.275 18.1262H17.0392C17.0392 17.6207 17.2311 17.209 17.6376 16.8797C18.044 16.5505 18.5519 16.3862 19.1839 16.3862C19.9063 16.3862 20.4478 16.5857 20.8082 16.9862C21.1585 17.374 21.3388 17.9147 21.3388 18.5732V19.4087H19.6458C17.8404 19.4087 16.4415 19.7732 15.471 20.5022C14.5005 21.2312 14.0152 22.2782 14.0152 23.6425C14.0152 24.724 14.41 25.642 15.1886 26.371C15.9672 27.112 16.9837 27.4765 18.2133 27.4765C19.4882 27.4765 20.5601 26.9942 21.4402 26.0417V26.041ZM20.2558 24.76C19.7815 25.03 19.2627 25.171 18.7212 25.171C18.1338 25.171 17.6602 25.006 17.299 24.6775C16.9487 24.3475 16.7685 23.9125 16.7685 23.3605C16.7685 22.678 17.0282 22.1605 17.5471 21.784C18.055 21.4195 18.8226 21.2312 19.8494 21.2312H21.3388V23.6425C21.0972 24.1198 20.7193 24.5098 20.2558 24.76ZM39.9695 26.041C40.06 26.5945 40.1614 26.9942 40.2855 27.241H43.1066V27.0415C42.8023 26.347 42.6439 25.4297 42.6439 24.2777V18.5027C42.622 17.1385 42.1813 16.0802 41.3231 15.3272C40.4664 14.575 39.3266 14.1985 37.8817 14.1985C36.9338 14.1985 36.0764 14.3635 35.3094 14.716C34.5308 15.0572 33.9324 15.5395 33.4815 16.1507C33.0407 16.762 32.8152 17.4205 32.8152 18.1262H35.5685C35.5685 17.6207 35.7604 17.209 36.1669 16.8797C36.5733 16.5505 37.0805 16.3862 37.7124 16.3862C38.4349 16.3862 38.9763 16.5857 39.3375 16.9862C39.6878 17.374 39.868 17.9147 39.868 18.5732V19.4087H38.1751C36.3697 19.4087 34.9708 19.7732 34.0003 20.5022C33.0298 21.2312 32.5445 22.2782 32.5445 23.6425C32.5445 24.724 32.9393 25.642 33.7179 26.371C34.4965 27.112 35.5123 27.4765 36.7419 27.4765C38.0175 27.4765 39.0894 26.9942 39.9695 26.0417V26.041ZM38.7961 24.76C38.3218 25.03 37.8036 25.171 37.2615 25.171C36.6631 25.171 36.1888 25.006 35.8509 24.6775C35.5006 24.3475 35.3204 23.9125 35.3204 23.3605C35.3204 22.678 35.5685 22.1605 36.088 21.784C36.5959 21.4195 37.3629 21.2312 38.3896 21.2312H39.8797V23.6425C39.638 24.12 39.2598 24.5099 38.7961 24.76Z" fill="#0B1124"/>
<path d="M47.6066 14.2355L47.6861 15.7175C48.5998 14.5768 49.7848 14 51.2625 14C53.8239 14 55.1228 15.5293 55.1673 18.587V27.0545H52.4141V18.752C52.4141 17.9398 52.2448 17.3405 51.9062 16.94C51.5676 16.5523 51.0144 16.352 50.2584 16.352C49.1419 16.352 48.3174 16.8815 47.7649 17.9285V27.0433H45V14.2355H47.6066Z" fill="#0B1124"/>
<path fill-rule="evenodd" clip-rule="evenodd" d="M71.6361 25.5613C72.7197 26.7013 74.1412 27.278 75.8904 27.278C76.9178 27.278 77.8315 27.0665 78.6553 26.6668C79.4559 26.2608 80.1373 25.6438 80.63 24.8788L79.1406 23.3968C78.3393 24.467 77.3126 24.9965 76.0487 24.9965C75.1461 24.9965 74.401 24.6785 73.8026 24.0673C73.205 23.456 72.8664 22.6205 72.7876 21.5623H80.8219V20.3975C80.8219 18.3635 80.3702 16.787 79.4566 15.6703C78.5422 14.5527 77.2448 14 75.5744 14C74.5141 14 73.5662 14.27 72.7088 14.8348C71.8506 15.3995 71.1851 16.1758 70.7108 17.1875C70.2364 18.1985 70 19.34 70 20.621V20.9735C70 22.8793 70.5531 24.4085 71.6361 25.5613ZM73.7238 17.1283C74.1981 16.5875 74.8075 16.3048 75.5635 16.3048C76.3304 16.3048 76.9288 16.5403 77.3579 17.0345C77.7862 17.528 78.0343 18.257 78.0912 19.2215V19.4338H72.8328C72.9569 18.4453 73.2612 17.681 73.7238 17.1283Z" fill="#0B1124"/>
</g>
<defs>
<clipPath id="clip0_185_1685">
<rect width="81" height="36" fill="white"/>
</clipPath>
</defs>
</svg>
