<svg width="28" height="28" viewBox="0 0 28 28" fill="none" xmlns="http://www.w3.org/2000/svg">
<circle cx="13.25" cy="11.25" r="5.25" fill="#FF4949"/>
<path fill-rule="evenodd" clip-rule="evenodd" d="M7.88187 11.3748C7.88187 8.31426 10.363 5.83317 13.4235 5.83317C16.4841 5.83317 18.9652 8.31426 18.9652 11.3748C18.9652 14.4354 16.4841 16.9165 13.4235 16.9165C10.363 16.9165 7.88187 14.4354 7.88187 11.3748ZM13.4235 7.58317C11.3295 7.58317 9.63187 9.28076 9.63187 11.3748C9.63187 13.4689 11.3295 15.1665 13.4235 15.1665C15.5176 15.1665 17.2152 13.4689 17.2152 11.3748C17.2152 9.28076 15.5176 7.58317 13.4235 7.58317Z" fill="#FF4949"/>
<path fill-rule="evenodd" clip-rule="evenodd" d="M3.53529 10.0412C3.94867 5.02612 8.13951 1.1665 13.1716 1.1665H13.6755C18.7076 1.1665 22.8984 5.02612 23.3118 10.0412C23.5338 12.7352 22.7017 15.4102 20.9906 17.5028L15.3987 24.3416C14.3778 25.59 12.4692 25.5901 11.4484 24.3416L5.85649 17.5028C4.14539 15.4102 3.31323 12.7352 3.53529 10.0412ZM13.1716 2.9165C9.05027 2.9165 5.61794 6.07756 5.27937 10.1849C5.09456 12.4271 5.78714 14.6534 7.21125 16.3951L12.8032 23.2338C13.1238 23.626 13.7233 23.626 14.0439 23.2338L19.6358 16.3951C21.0599 14.6534 21.7525 12.4271 21.5677 10.1849C21.2291 6.07756 17.7968 2.9165 13.6755 2.9165H13.1716Z" fill="#FF4949"/>
</svg>
