<svg width="508" height="399" viewBox="0 0 508 399" fill="none" xmlns="http://www.w3.org/2000/svg">
<path fill-rule="evenodd" clip-rule="evenodd" d="M149 286C186.808 286 221.038 270.685 245.827 245.921C223.492 219.866 210 186.008 210 149C210 138.696 211.046 128.635 213.038 118.92C156.869 136.023 116 188.239 116 250C116 261.349 117.38 272.375 119.981 282.921C129.335 284.938 139.043 286 149 286ZM110.274 292.918C46.7594 275.869 0 217.895 0 149C0 66.7096 66.7096 0 149 0C189.963 0 227.065 16.53 254 43.2834C280.935 16.53 318.037 0 359 0C441.29 0 508 66.7096 508 149C508 218.678 460.172 277.185 395.555 293.483C376.948 354.561 320.164 399 253 399C185.629 399 128.702 354.287 110.274 292.918ZM106.902 279.41C51.8357 261.648 12 209.976 12 149C12 73.337 73.337 12 149 12C186.808 12 221.038 27.3149 245.827 52.0794C232.621 67.4849 222.507 85.6179 216.445 105.517C151.828 121.815 104 180.322 104 250C104 260.068 104.999 269.903 106.902 279.41ZM226.09 115.642C223.418 126.32 222 137.494 222 149C222 182.505 234.027 213.2 254 237.005C273.973 213.2 286 182.505 286 149C286 137.651 284.62 126.625 282.019 116.079C272.665 114.062 262.957 113 253 113C243.789 113 234.791 113.909 226.09 115.642ZM278.125 103.109C269.957 101.722 261.563 101 253 101C245.177 101 237.495 101.603 229.998 102.765C235.512 87.3818 243.699 73.2719 254 60.995C264.378 73.3636 272.61 87.5926 278.125 103.109ZM295.098 119.59C297.001 129.097 298 138.932 298 149C298 186.008 284.508 219.866 262.173 245.921C286.962 270.685 321.192 286 359 286C368.211 286 377.209 285.091 385.91 283.358C388.582 272.68 390 261.506 390 250C390 189.024 350.164 137.352 295.098 119.59ZM398.962 280.08C400.954 270.365 402 260.304 402 250C402 181.105 355.241 123.131 291.726 106.082C285.684 85.9611 275.504 67.6306 262.173 52.0794C286.962 27.3149 321.192 12 359 12C434.663 12 496 73.337 496 149C496 210.761 455.131 262.978 398.962 280.08ZM382.002 296.235C374.505 297.397 366.823 298 359 298C318.037 298 280.935 281.47 254 254.717C227.065 281.47 189.963 298 149 298C140.437 298 132.043 297.278 123.875 295.891C142.745 348.984 193.433 387 253 387C312.438 387 363.035 349.149 382.002 296.235Z" fill="#F9FC62"/>
<path d="M245.827 245.921C221.038 270.685 186.808 286 149 286C139.043 286 129.335 284.938 119.981 282.921C117.38 272.375 116 261.349 116 250C116 188.239 156.869 136.023 213.038 118.92C211.046 128.635 210 138.696 210 149C210 186.008 223.492 219.866 245.827 245.921Z" fill="#F9FC62"/>
<path d="M298 149C298 138.932 297.001 129.097 295.098 119.59C350.164 137.352 390 189.024 390 250C390 261.506 388.582 272.68 385.91 283.358C377.209 285.091 368.211 286 359 286C321.192 286 286.962 270.685 262.173 245.921C284.508 219.866 298 186.008 298 149Z" fill="#F9FC62"/>
</svg>
